<?xml version="1.0" encoding="iso-8859-1"?>
<!-- Generator: Adobe Illustrator 19.0.0, SVG Export Plug-In . SVG Version: 6.00 Build 0)  -->
<svg version="1.1" id="Capa_1" xmlns="http://www.w3.org/2000/svg" xmlns:xlink="http://www.w3.org/1999/xlink" x="0px" y="0px"
	 viewBox="0 0 464.057 464.057" style="enable-background:new 0 0 464.057 464.057;" xml:space="preserve">
<g>
	<path style="fill:#FDB62F;" d="M144.028,168h176v128h-176V168z"/>
	<path style="fill:#FDB62F;" d="M144.028,192v80h-48c-8.837,0-16,7.163-16,16v48h-80v-48c0-53.019,42.981-96,96-96H144.028z"/>
	<path style="fill:#FDB62F;" d="M184.028,120h96v48h-96V120z"/>
	<path style="fill:#FDB62F;" d="M320.028,184h88v96h-88V184z"/>
	<path style="fill:#FDB62F;" d="M408.028,152h56v160h-56V152z"/>
	<path style="fill:#FDB62F;" d="M216.028,0h32v120h-32V0z"/>
</g>
<path style="fill:#4398D1;" d="M40.028,368l-28.584,53.064c-7.272,14.779-1.187,32.655,13.592,39.927
	c4.651,2.289,9.818,3.326,14.992,3.009c16.44,1.008,30.585-11.503,31.593-27.944c0.317-5.174-0.72-10.341-3.009-14.992L40.028,368z"
	/>
<path style="fill:#FDB62F;" d="M328.652,65.728L280.028,56h-96l-48.624,9.728c-14.212,2.837-28.032-6.385-30.868-20.596
	c-0.337-1.69-0.507-3.409-0.508-5.132c0.002-14.492,11.753-26.238,26.244-26.236c1.723,0,3.442,0.17,5.132,0.508L184.028,24h96
	l48.624-9.728c14.212-2.837,28.032,6.385,30.868,20.596c0.337,1.69,0.507,3.409,0.508,5.132
	c-0.002,14.492-11.753,26.238-26.244,26.236C332.061,66.235,330.342,66.065,328.652,65.728z"/>
<g>
	<path style="fill:#F7A72E;" d="M105.732,192C87.307,245.674,49.649,290.617,0.028,318.152V336h80v-48c0-8.837,7.163-16,16-16h48
		v-80H105.732z"/>
	<path style="fill:#F7A72E;" d="M248.028,120h32v48h-32V120z"/>
	<path style="fill:#F7A72E;" d="M144.028,274.024V296h176v-72C320.028,224,256.028,264,144.028,274.024z"/>
	<path style="fill:#F7A72E;" d="M216.028,56h32v24h-32V56z"/>
	<path style="fill:#F7A72E;" d="M408.028,232h56v80h-56V232z"/>
</g>
<path style="fill:#3E8CC7;" d="M61.484,407.832c-10.031,19.97-28.889,34.043-50.888,37.976c5.38,11.324,16.898,18.443,29.432,18.192
	c16.44,1.008,30.585-11.503,31.593-27.944c0.317-5.174-0.72-10.341-3.009-14.992L61.484,407.832z"/>
<g>
</g>
<g>
</g>
<g>
</g>
<g>
</g>
<g>
</g>
<g>
</g>
<g>
</g>
<g>
</g>
<g>
</g>
<g>
</g>
<g>
</g>
<g>
</g>
<g>
</g>
<g>
</g>
<g>
</g>
</svg>
