<svg height="479pt" viewBox="-33 0 479 479.75203" width="479pt" xmlns="http://www.w3.org/2000/svg"><path d="m300.964844 398.578125 70.199218-33.15625c15.480469-7.816406 34.363282-2.085937 42.890626 13.007813l-142.6875 92.300781c-19.132813 8.828125-40.601563 11.257812-61.222657 6.929687l-98.410156-27.621094c-9.054687-2.539062-18.746094-1.480468-27.039063 2.960938l-20.578124 11.011719 2.769531-100.371094.820312.019531c29.40625-20.894531 68.027344-23.597656 100.058594-7l5.890625 3.050782c9.210938 4.769531 19.378906 7.398437 29.75 7.679687l57.851562 1.597656c18.152344.496094 34.042969 12.335938 39.707032 29.589844zm0 0" fill="#f7caa5"/><path d="m320.226562 222.5c0 59.652344-48.359374 108.011719-108.011718 108.011719s-108.007813-48.359375-108.007813-108.011719 48.355469-108.011719 108.007813-108.011719 108.011718 48.359375 108.011718 108.011719zm0 0" fill="#fedb41"/><path d="m212.214844 213.878906c-10.027344 0-18.160156-8.128906-18.160156-18.160156 0-10.027344 8.132812-18.160156 18.160156-18.160156 10.03125 0 18.160156 8.132812 18.160156 18.160156 0 4.417969 3.582031 8 8 8s8-3.582031 8-8c-.019531-16.160156-11.34375-30.101562-27.160156-33.433594v-7.285156c0-4.417969-3.582032-8-8-8-4.417969 0-8 3.582031-8 8v7.773438c-16.503906 4.503906-27.132813 20.53125-24.855469 37.488281 2.273437 16.960937 16.746094 29.621093 33.855469 29.617187 9.953125-.078125 18.117187 7.871094 18.300781 17.820313.183594 9.953125-7.683594 18.195312-17.632813 18.480469-.898437-.195313-1.820312-.230469-2.726562-.101563-9.1875-1.003906-16.136719-8.785156-16.101562-18.027344 0-4.417969-3.582032-8-8-8-4.417969 0-8 3.582031-8 8-.050782 15.417969 10.273437 28.941407 25.160156 32.957031v7.992188c0 4.417969 3.582031 8 8 8 4.417968 0 8-3.582031 8-8v-7.515625c17.132812-3.585937 28.78125-19.546875 26.980468-36.957031-1.804687-17.410156-16.472656-30.644532-33.980468-30.648438zm0 0" fill="#00acea"/><path d="m303.085938 421.179688h-.21875l-95.089844-2.621094c-4.417969-.121094-7.898438-3.800782-7.777344-8.214844.121094-4.417969 3.800781-7.898438 8.214844-7.777344l86.179687 2.375c-.265625-1.304687-.609375-2.589844-1.027343-3.855468-4.625-14.039063-17.550782-23.675782-32.328126-24.097657l-57.855468-1.601562c-11.570313-.328125-22.921875-3.261719-33.207032-8.574219l-5.886718-3.046875c-29.355469-15.300781-64.8125-12.820313-91.75 6.417969-3.601563 2.558594-8.597656 1.710937-11.15625-1.890625-2.558594-3.601563-1.710938-8.597657 1.890625-11.15625 31.816406-22.71875 73.699219-25.648438 108.371093-7.578125l5.890626 3.046875c8.140624 4.207031 17.125 6.523437 26.285156 6.789062l57.855468 1.597657c13.53125.363281 26.363282 6.089843 35.667969 15.921874 9.304688 9.828126 14.320313 22.957032 13.9375 36.484376-.117187 4.335937-3.664062 7.785156-8 7.78125zm0 0" fill="#edb288"/><g fill="#00acea"><path d="m212.214844 92c-4.417969 0-8-3.582031-8-8v-76c0-4.417969 3.582031-8 8-8 4.417968 0 8 3.582031 8 8v76c0 4.417969-3.582032 8-8 8zm0 0"/><path d="m272.214844 92c-4.417969 0-8-3.582031-8-8v-36c0-4.417969 3.582031-8 8-8 4.417968 0 8 3.582031 8 8v36c0 4.417969-3.582032 8-8 8zm0 0"/><path d="m152.214844 92c-4.417969 0-8-3.582031-8-8v-36c0-4.417969 3.582031-8 8-8 4.417968 0 8 3.582031 8 8v36c0 4.417969-3.582032 8-8 8zm0 0"/></g><path d="m64.117188 464.011719-.3125 11.296875-63.429688-1.738282 3.832031-139.210937 63.4375 1.742187-.757812 27.539063zm0 0" fill="#00efd1"/></svg>