<svg id="Capa_1" enable-background="new 0 0 512 512" height="512" viewBox="0 0 512 512" width="512" xmlns="http://www.w3.org/2000/svg"><g><g><path d="m136 7.5c15.088 0 28.168 8.566 34.665 21.095h200.669c6.498-12.529 19.578-21.095 34.666-21.095 21.559 0 39.036 17.477 39.036 39.036s-17.477 39.036-39.036 39.036c-15.088 0-28.168-8.566-34.665-21.095h-200.67c-6.497 12.528-19.577 21.094-34.665 21.094-21.559 0-39.036-17.477-39.036-39.036 0-21.558 17.477-39.035 39.036-39.035z" fill="#cbc4cc"/><g><path d="m406 7.5c-5.31 0-10.361 1.08-14.974 3.001 14.099 5.886 24.01 19.802 24.01 36.035s-9.911 30.148-24.01 36.035c4.613 1.921 9.664 3.001 14.974 3.001 21.559 0 39.036-17.477 39.036-39.036s-17.477-39.036-39.036-39.036z" fill="#b5adb6"/></g><path d="m251.441 84.036h39.118v35.881h-39.118z" fill="#b5adb6" transform="matrix(0 -1 1 0 169.024 372.976)"/><path d="m4 238.536h188.5v-87h-188.5c-2.209 0-4 1.791-4 4v79c0 2.209 1.791 4 4 4z" fill="#cbc4cc"/><path d="m162.5 151.536h30v87h-30z" fill="#b5adb6"/><path d="m349.5 151.536h72.703c37.167 0 67.297 30.13 67.297 67.297v104.703h-87v-74.267c0-5.928-4.805-10.733-10.733-10.733h-42.267z" fill="#cbc4cc"/><path d="m422.203 151.536h-30c37.167 0 67.297 30.13 67.297 67.296v104.704h30v-104.704c0-37.167-30.13-67.296-67.297-67.296z" fill="#b5adb6"/><path d="m402.5 353.536h87c8.284 0 15-6.716 15-15 0-8.284-6.716-15-15-15h-87c-8.284 0-15 6.716-15 15 0 8.284 6.716 15 15 15z" fill="#b5adb6"/><path d="m489.5 323.536h-30c8.284 0 15 6.716 15 15 0 8.284-6.716 15-15 15h30c8.284 0 15-6.716 15-15 0-8.285-6.716-15-15-15z" fill="#a79ba7"/><path d="m92.5 151.536v87c0 8.284 6.716 15 15 15 8.284 0 15-6.716 15-15v-87c0-8.284-6.716-15-15-15-8.284 0-15 6.715-15 15z" fill="#b5adb6"/><path d="m271 313.536c43.354 0 78.5-35.146 78.5-78.5v-83.5c0-16.568-13.431-30-30-30h-97c-16.568 0-30 13.432-30 30v83.5c0 43.354 35.146 78.5 78.5 78.5z" fill="#cbc4cc"/><path d="m319.5 121.536h-30c16.568 0 30 13.432 30 30v83.5c0 38.223-27.323 70.049-63.5 77.052 4.857.94 9.868 1.448 15 1.448 43.354 0 78.5-35.146 78.5-78.5v-83.5c0-16.569-13.432-30-30-30z" fill="#b5adb6"/><path d="m201.562 28.595h78.876v35.881h-78.876z" fill="#b5adb6"/><path d="m246.562 82.417h48.876c8.284 0 15-6.716 15-15v-41.763c0-8.284-6.716-15-15-15h-48.876c-8.284 0-15 6.716-15 15v41.763c0 8.284 6.716 15 15 15z" fill="#cbc4cc"/><path d="m295.438 10.654h-30c8.284 0 15 6.716 15 15v41.763c0 8.284-6.716 15-15 15h30c8.284 0 15-6.716 15-15v-41.763c0-8.284-6.716-15-15-15z" fill="#b5adb6"/><path d="m399.028 457.547c0 25.932 21.03 46.953 46.972 46.953s46.972-21.022 46.972-46.953-46.972-70.431-46.972-70.431-46.972 44.499-46.972 70.431z" fill="#b3dafe"/><path d="m446 387.116s-6.679 6.329-15 15.601c13.746 15.319 31.972 38.675 31.972 54.829 0 20.687-13.389 38.235-31.972 44.494 4.712 1.587 9.752 2.46 15 2.46 25.942 0 46.972-21.022 46.972-46.954 0-25.931-46.972-70.43-46.972-70.43z" fill="#8ac9fe"/></g><path d="m7.5 159.04h15.54c4.143 0 7.5-3.357 7.5-7.5s-3.357-7.5-7.5-7.5h-15.54c-4.143 0-7.5 3.357-7.5 7.5s3.357 7.5 7.5 7.5zm489.5 158.285v-98.493c0-41.243-33.554-74.797-74.797-74.797h-65.958c-3.484-17.096-18.635-30-36.745-30h-23.06v-24.143c10.396-.458 18.982-8.002 21.032-17.911h49.561c8.551 13.115 23.092 21.09 38.967 21.09 25.662 0 46.54-20.873 46.54-46.53 0-25.663-20.878-46.541-46.54-46.541-15.87 0-30.411 7.974-38.966 21.09h-49.562c-2.115-10.225-11.191-17.936-22.034-17.936h-48.877c-10.843 0-19.918 7.71-22.034 17.936h-49.562c-8.554-13.116-23.095-21.09-38.965-21.09-25.662 0-46.54 20.878-46.54 46.54 0 25.657 20.878 46.53 46.54 46.53 15.875 0 30.416-7.975 38.967-21.09h49.561c2.05 9.909 10.636 17.453 21.032 17.911v24.144h-23.06c-18.112 0-33.264 12.906-36.746 30.005h-57.042c-3.095-8.732-11.433-15.005-21.211-15.005s-18.117 6.273-21.211 15.005h-34.59c-4.143 0-7.5 3.357-7.5 7.5s3.357 7.5 7.5 7.5h33.3v72h-77.5c-4.143 0-7.5 3.357-7.5 7.5s3.357 7.5 7.5 7.5h78.792c3.097 8.727 11.433 14.995 21.208 14.995s18.111-6.268 21.208-14.995h57.02c5.423 42.239 41.581 74.995 85.272 74.995 16.476 0 32.486-4.674 46.301-13.517 3.489-2.232 4.507-6.871 2.273-10.359-2.231-3.49-6.87-4.507-10.359-2.273-11.396 7.294-24.611 11.149-38.215 11.149-39.149 0-71-31.85-71-70.999v-83.501c0-12.406 10.094-22.5 22.5-22.5h97c12.406 0 22.5 10.094 22.5 22.5v83.501c0 15.061-4.653 29.446-13.458 41.603-2.43 3.354-1.68 8.044 1.675 10.474 3.353 2.429 8.043 1.681 10.474-1.675 8.502-11.738 13.798-25.192 15.604-39.402h35.473c1.782 0 3.232 1.45 3.232 3.233v68.057c-8.729 3.096-15 11.433-15 21.211 0 12.406 10.094 22.499 22.5 22.499h87c12.406 0 22.5-10.094 22.5-22.5 0-9.778-6.271-18.115-15-21.211zm-179.062-281.235h53.392c2.8 0 5.366-1.56 6.656-4.044 5.459-10.515 16.194-17.046 28.014-17.046 17.392 0 31.54 14.148 31.54 31.54 0 17.386-14.148 31.53-31.54 31.53-11.825 0-22.559-6.53-28.013-17.044-1.289-2.485-3.856-4.046-6.657-4.046h-53.392zm-93.876 20.89h-53.392c-2.801 0-5.368 1.561-6.657 4.046-5.454 10.514-16.188 17.044-28.013 17.044-17.392 0-31.54-14.145-31.54-31.53 0-17.392 14.148-31.54 31.54-31.54 11.82 0 22.555 6.531 28.014 17.046 1.29 2.484 3.856 4.044 6.656 4.044h53.392zm-109.062 181.556c0 4.135-3.364 7.499-7.5 7.499s-7.5-3.364-7.5-7.499v-87.001c0-4.136 3.364-7.5 7.5-7.5s7.5 3.364 7.5 7.5zm70-7.496h-55v-72h55zm96.44-117.005h-20.88v-24.118h20.881v24.118zm-34.878-39.118c-4.136 0-7.5-3.364-7.5-7.5v-41.763c0-4.136 3.364-7.5 7.5-7.5h48.877c4.136 0 7.5 3.364 7.5 7.5v41.763c0 4.136-3.364 7.5-7.5 7.5zm145.206 156.118h-34.768v-72h65.203c32.972 0 59.797 26.825 59.797 59.797v97.203h-72v-66.767c0-10.053-8.179-18.233-18.232-18.233zm97.732 115h-87c-4.136 0-7.5-3.364-7.5-7.5s3.364-7.5 7.5-7.5h87c4.136 0 7.5 3.365 7.5 7.501 0 4.135-3.364 7.499-7.5 7.499zm-38.342 35.637c-2.893-2.74-7.424-2.74-10.316 0-5.047 4.781-49.313 47.535-49.313 75.875-.001 30.025 24.435 54.453 54.471 54.453s54.472-24.428 54.472-54.453c0-28.34-44.267-71.094-49.314-75.875zm-5.158 115.328c-21.765 0-39.472-17.698-39.472-39.453 0-14.947 22.422-42.667 39.472-59.925 17.05 17.258 39.472 44.978 39.472 59.925 0 21.755-17.707 39.453-39.472 39.453z"/></g></svg>