<svg id="Capa_1" enable-background="new 0 0 512 512" height="512" viewBox="0 0 512 512" width="512" xmlns="http://www.w3.org/2000/svg"><g><path clip-rule="evenodd" d="m125.39 76.354c14.636 8.447 24.507 24.293 24.507 42.406 0 27.043-21.954 48.983-49.014 48.983-8.906 0-17.273-2.381-24.507-6.548-7.204 4.167-15.572 6.548-24.478 6.548-27.088 0-49.015-21.94-49.015-48.983 0-18.114 9.843-33.959 24.508-42.406 0-27.042 21.925-48.983 48.984-48.983 27.089 0 49.015 21.941 49.015 48.983z" fill="#95d6a4" fill-rule="evenodd"/><path clip-rule="evenodd" d="m484.624 76.354c14.636 8.447 24.506 24.293 24.506 42.406 0 27.043-21.953 48.983-49.013 48.983-8.935 0-17.302-2.381-24.507-6.548-7.205 4.167-15.572 6.548-24.507 6.548-27.06 0-48.985-21.94-48.985-48.983 0-18.114 9.843-33.959 24.507-42.406 0-27.042 21.925-48.983 48.985-48.983s49.014 21.941 49.014 48.983z" fill="#95d6a4" fill-rule="evenodd"/><path clip-rule="evenodd" d="m304.993 76.354c14.664 8.447 24.506 24.293 24.506 42.406 0 27.043-21.926 48.983-48.984 48.983-8.935 0-17.303-2.381-24.508-6.548-7.204 4.167-15.571 6.548-24.506 6.548-27.06 0-49.014-21.94-49.014-48.983 0-18.114 9.871-33.959 24.507-42.406 0-27.042 21.954-48.983 49.013-48.983s48.986 21.941 48.986 48.983z" fill="#95d6a4" fill-rule="evenodd"/><path d="m68.888 77.545c0-4.139 3.348-7.483 7.488-7.483 4.17 0 7.517 3.345 7.517 7.483v41.471l16.877-16.866c2.922-2.948 7.687-2.948 10.608 0 2.922 2.92 2.922 7.682 0 10.602l-27.485 27.467v88.412c0 4.139-3.347 7.483-7.517 7.483-4.141 0-7.488-3.345-7.488-7.483v-88.412l-27.484-27.467c-2.922-2.92-2.922-7.682 0-10.602 2.922-2.948 7.687-2.948 10.608 0l16.876 16.866zm211.484 24.604c2.922-2.948 7.688-2.948 10.608 0 2.949 2.92 2.949 7.682 0 10.602l-27.484 27.467v88.412c0 4.139-3.348 7.483-7.489 7.483s-7.517-3.345-7.517-7.483v-88.412l-27.484-27.467c-2.921-2.92-2.921-7.682 0-10.602 2.95-2.948 7.688-2.948 10.608 0l16.876 16.866v-41.47c0-4.139 3.376-7.483 7.517-7.483 4.142 0 7.489 3.345 7.489 7.483v41.471zm179.632 0c2.922-2.948 7.658-2.948 10.608 0 2.921 2.92 2.921 7.682 0 10.602l-27.485 27.467v88.412c0 4.139-3.375 7.483-7.517 7.483s-7.488-3.345-7.488-7.483v-88.412l-27.485-27.467c-2.95-2.92-2.95-7.682 0-10.602 2.922-2.948 7.658-2.948 10.608 0l16.877 16.866v-41.47c0-4.139 3.347-7.483 7.488-7.483s7.517 3.345 7.517 7.483v41.471z" fill="#917d52"/><g clip-rule="evenodd" fill-rule="evenodd"><path d="m511.995 237.872c-.028.765-.057 1.757-.085 2.494-6.155 135.95-118.364 244.262-255.903 244.262-137.367 0-249.464-108.028-255.874-243.722-.34-7.398-.766-12.275 8.963-12.275h493.822c5.985 0 9.219 3.26 9.077 9.241z" fill="#98e5fa"/><path d="m511.995 237.872c-.028.765-.057 1.757-.085 2.494-6.155 135.95-118.364 244.262-255.903 244.262-4.198 0-8.366-.113-12.508-.312 131.752-6.321 237.409-112.167 243.394-243.95.029-.737.057-1.729.086-2.494.142-5.981-3.092-9.241-9.077-9.241h25.017c5.984 0 9.218 3.26 9.076 9.241z" fill="#8bdef5"/><path d="m173.949 321.834c0-22.819-18.691-41.499-41.525-41.499h-127.356c13.133 63.921 50.063 119.14 101.176 155.991h1.162c22.834 0 41.526-18.652 41.526-41.499 0-9.241-3.12-17.887-8.312-24.803-2.893-3.855-2.354-6.689 2.809-8.192 17.53-5.047 30.52-21.091 30.52-39.998z" fill="#b3e59f"/><path d="m312.395 315.315c0 6.718 2.071 12.897 5.475 18.17 3.744 5.726 3.233 6.492-2.95 8.618-13.047 4.535-22.407 16.837-22.407 31.238 0 18.142 14.862 32.995 33.016 32.995h114.847c32.591-33.761 55.963-76.422 66.146-123.987h-161.11c-18.153-.001-33.017 14.824-33.017 32.966z" fill="#b3e59f"/><path d="m168.759 469.406c27.23 9.836 56.615 15.222 87.248 15.222 29.783 0 58.375-5.074 84.952-14.428-18.947-21.628-50.603-35.83-86.455-35.83-35.399 0-66.713 13.833-85.745 35.036z" fill="#b3e59f"/><path d="m107.406 436.326c22.834 0 41.526-18.652 41.526-41.499 0-9.241-3.12-17.887-8.312-24.803-2.893-3.855-2.354-6.689 2.809-8.192 17.529-5.046 30.519-21.09 30.519-39.997 0-22.819-18.691-41.499-41.525-41.499h-25.018c22.834 0 41.526 18.68 41.526 41.499 0 18.907-12.991 34.951-30.492 39.997-5.19 1.503-5.729 4.337-2.836 8.192 5.19 6.917 8.311 15.562 8.311 24.803 0 16.328-9.559 30.529-23.344 37.304 1.872 1.417 3.744 2.834 5.673 4.195z" fill="#95d6a4"/><path d="m506.521 282.348h-25.018c-10.183 47.565-33.555 90.227-66.146 123.987h25.017c32.592-33.761 55.964-76.422 66.147-123.987z" fill="#95d6a4"/><path d="m460.117 167.743c27.06 0 49.013-21.94 49.013-48.983 0-18.114-9.87-33.959-24.506-42.406 0-27.042-21.954-48.983-49.014-48.983-4.312 0-8.51.567-12.509 1.616 21.018 5.528 36.505 24.633 36.505 47.367 14.636 8.447 24.507 24.293 24.507 42.406 0 22.734-15.487 41.839-36.505 47.367 3.999 1.049 8.198 1.616 12.509 1.616z" fill="#78c2a4"/><path d="m280.515 167.743c27.059 0 48.984-21.94 48.984-48.983 0-18.114-9.842-33.959-24.506-42.406 0-27.042-21.927-48.983-48.986-48.983-4.34 0-8.51.567-12.508 1.616 20.989 5.528 36.476 24.633 36.476 47.367 14.665 8.447 24.507 24.293 24.507 42.406 0 22.734-15.486 41.839-36.475 47.367 3.97 1.049 8.167 1.616 12.508 1.616z" fill="#78c2a4"/><path d="m100.883 167.743c27.06 0 49.014-21.94 49.014-48.983 0-18.114-9.871-33.959-24.507-42.406 0-27.042-21.926-48.983-49.014-48.983-4.311 0-8.509.567-12.509 1.616 21.019 5.528 36.505 24.633 36.505 47.367 14.637 8.447 24.508 24.293 24.508 42.406 0 22.734-15.487 41.839-36.506 47.367 4 1.049 8.197 1.616 12.509 1.616z" fill="#78c2a4"/></g></g></svg>